<svg xmlns="http://www.w3.org/2000/svg" viewBox="0 0 320 96" role="img" aria-label="Git Tools logo">
  <rect width="320" height="96" rx="18" fill="#14532D"/>
  <g fill="#DCFCE7">
    <path d="M36 28h32a10 10 0 0 1 10 10v4h-10v-4H36v20h32v-4h10v4A10 10 0 0 1 68 68H36A10 10 0 0 1 26 58V38a10 10 0 0 1 10-10Z"/>
    <path d="M58 36l16 12-16 12v-8H42v-8h16v-8Z"/>
    <path d="M106 62V34h8.4v28H106Zm4.2-32.4c-1.5 0-2.8-.5-3.8-1.5s-1.5-2.2-1.5-3.7.5-2.7 1.5-3.7 2.2-1.5 3.8-1.5 2.8.5 3.8 1.5 1.5 2.2 1.5 3.7-.5 2.7-1.5 3.7-2.2 1.5-3.8 1.5Z"/>
    <path d="M131 62V41h-7.4v-7h7.4v-2.4c0-4.1 1.1-7.2 3.3-9.4 2.2-2.2 5.3-3.3 9.4-3.3 1.3 0 2.4.1 3.4.3s1.8.4 2.4.7v7.1a8.4 8.4 0 0 0-3.8-.8c-2 0-3.5.5-4.5 1.5s-1.5 2.5-1.5 4.4V34h9.1v7h-9.1v21H131Z"/>
    <path d="M167.8 62.8c-3.1 0-5.9-.6-8.3-1.9-2.5-1.3-4.4-3.1-5.8-5.4-1.4-2.3-2.1-5-2.1-8s.7-5.7 2.1-8c1.4-2.3 3.3-4.1 5.8-5.4 2.5-1.3 5.2-1.9 8.3-1.9 2.7 0 5 .4 7.1 1.2 2.1.8 3.8 2 5.2 3.6l-5.1 5.1c-.9-.9-1.9-1.6-3-2.1-1.1-.5-2.4-.7-3.8-.7-1.5 0-2.9.3-4 .9-1.2.6-2.1 1.5-2.8 2.7-.7 1.2-1 2.7-1 4.5s.3 3.2 1 4.5c.7 1.2 1.6 2.1 2.8 2.8 1.2.6 2.5.9 4 .9 1.5 0 2.8-.2 3.9-.7 1.1-.5 2.2-1.2 3.1-2.2l5.1 5.2c-1.4 1.6-3.2 2.8-5.3 3.6-2.1.8-4.5 1.2-7.1 1.2Z"/>
    <path d="M201.6 62.8c-3.3 0-6.1-.6-8.6-1.9-2.5-1.3-4.4-3.1-5.8-5.4-1.4-2.3-2.1-5-2.1-8s.7-5.7 2-8c1.4-2.3 3.2-4.1 5.6-5.4 2.4-1.3 5.1-1.9 8.1-1.9 2.9 0 5.4.6 7.7 1.8 2.2 1.2 4 2.9 5.3 5.1 1.3 2.2 1.9 4.8 1.9 7.8 0 .5 0 1-.1 1.5 0 .6-.1 1.2-.2 1.8h-23.2c.3 2.2 1.2 3.9 2.8 5 1.6 1.1 3.5 1.7 5.8 1.7 1.8 0 3.4-.3 4.8-.9 1.4-.6 2.7-1.4 3.8-2.6l4.6 4.6c-1.6 1.8-3.6 3.1-5.9 4-2.3.9-4.9 1.3-7.8 1.3Zm-8.7-18.2h15.1c-.2-1.9-.9-3.3-2.2-4.3-1.2-1-2.9-1.5-4.9-1.5-1.9 0-3.5.5-4.8 1.5-1.3 1-2.3 2.4-2.8 4.3Z"/>
    <path d="M221.2 62V34h8.1v3.6c1-1.4 2.3-2.5 3.9-3.2 1.6-.8 3.4-1.2 5.5-1.2 2.2 0 4.1.5 5.8 1.4 1.6.9 2.9 2.3 3.8 4.1.9 1.8 1.3 4 1.3 6.6V62h-8.4V46.6c0-2-.5-3.5-1.4-4.5-.9-1-2.2-1.5-3.9-1.5-1.2 0-2.3.3-3.3.8-.9.5-1.7 1.3-2.2 2.3-.5 1-.8 2.2-.8 3.7V62h-8.4Z"/>
  </g>
</svg>
